<?xml version="1.0" standalone="no"?>
<!DOCTYPE svg PUBLIC "-//W3C//DTD SVG 20010904//EN"
 "http://www.w3.org/TR/2001/REC-SVG-20010904/DTD/svg10.dtd">
<svg version="1.0" xmlns="http://www.w3.org/2000/svg"
 width="806.000000pt" height="806.000000pt" viewBox="0 0 806.000000 806.000000"
 preserveAspectRatio="xMidYMid meet">

<g transform="translate(0.000000,806.000000) scale(0.100000,-0.100000)"
fill="#000000" stroke="none">
<path d="M780 8045 c-206 -38 -372 -127 -517 -278 -121 -126 -199 -270 -240
-443 -17 -76 -18 -201 -18 -3294 0 -3093 1 -3218 18 -3294 44 -184 121 -322
256 -457 135 -135 273 -212 457 -256 76 -17 201 -18 3294 -18 3093 0 3218 1
3294 18 184 44 322 121 457 256 135 135 212 273 256 457 17 76 18 201 18 3294
0 3093 -1 3218 -18 3294 -44 183 -121 322 -256 457 -132 132 -258 204 -451
256 -61 17 -246 18 -3270 19 -2664 2 -3218 0 -3280 -11z m2870 -2372 l0 -927
59 90 c135 205 333 345 570 404 730 182 1376 -141 1620 -809 38 -103 68 -250
81 -386 6 -66 10 -545 10 -1187 l0 -1078 -445 0 -445 0 0 973 c0 930 -4 1077
-31 1202 -55 259 -215 443 -454 522 -72 24 -95 27 -235 27 -145 1 -161 -1
-243 -28 -201 -66 -360 -221 -428 -420 -59 -172 -59 -165 -59 -1267 l0 -1009
-445 0 -445 0 0 2410 0 2410 445 0 445 0 0 -927z m-1190 -803 l0 -420 -122 0
c-268 0 -465 -73 -651 -240 -88 -79 -175 -219 -214 -340 -47 -151 -46 -128
-50 -1137 l-4 -953 -445 0 -444 0 0 1715 0 1715 430 0 430 0 1 -327 0 -328 39
108 c90 253 221 410 434 522 137 72 270 102 464 104 l132 1 0 -420z m4698
-2053 c92 -32 155 -73 224 -145 72 -75 102 -125 134 -219 33 -96 37 -232 10
-332 -50 -191 -213 -355 -406 -406 -71 -19 -248 -19 -320 0 -197 52 -363 218
-415 415 -19 72 -19 217 1 294 50 195 229 365 434 411 96 22 245 14 338 -18z"/>
</g>
</svg>
